<svg width="24" height="24" viewBox="0 0 24 24" fill="none" xmlns="http://www.w3.org/2000/svg">
<g clip-path="url(#clip0_5_361)">
<path d="M20 22.9C19.9 22.9 19.8 22.9 19.7 22.9C16.5 22.5 13.3 21.4 10.6 19.7C8.10001 18.1 5.90001 15.9 4.30001 13.4C2.50001 10.7 1.40001 7.50002 1.10001 4.30002C1.10001 3.50002 1.30001 2.70002 1.80001 2.10002C2.30001 1.50002 3.00001 1.10002 3.80001 1.00002C3.90001 1.00002 4.00001 1.00002 4.10001 1.00002H7.10001C8.60001 1.00002 9.90001 2.10002 10.1 3.60002C10.2 4.50002 10.4 5.40002 10.7 6.20002C11.1 7.30002 10.8 8.50002 10 9.40002L9.30001 10.1C10.5 11.9 12 13.5 13.9 14.7L14.6 14C15.4 13.2 16.7 12.9 17.8 13.3C18.6 13.6 19.5 13.8 20.4 13.9C21.9 14.1 23 15.4 23 16.9V19.9C23 20.7 22.7 21.5 22.1 22C21.5 22.5 20.8 22.9 20 22.9ZM7.10001 3.00002H4.10001C3.80001 3.00002 3.50001 3.20002 3.30001 3.40002C3.20001 3.60002 3.10001 3.80002 3.10001 4.10002C3.40001 7.00002 4.40001 9.80002 6.00001 12.3C7.50001 14.6 9.40001 16.6 11.7 18C14.2 19.6 17 20.6 19.9 20.9C20.3 20.9 20.5 20.8 20.7 20.6C20.9 20.4 21 20.2 21 19.9V16.9C21 16.4 20.6 16 20.1 15.9C19.1 15.8 18.1 15.5 17.1 15.1C16.7 15 16.3 15 16 15.3L14.7 16.6C14.4 16.9 13.9 17 13.5 16.8C10.8 15.3 8.60001 13.1 7.10001 10.4C7.00001 10 7.10001 9.50002 7.40001 9.20002L8.70001 7.90002C8.90001 7.70002 9.00001 7.20002 8.90001 6.90002C8.50001 5.90002 8.30001 4.90002 8.10001 3.90002C8.10001 3.40002 7.60001 3.00002 7.10001 3.00002ZM19 10C18.5 10 18.1 9.70002 18 9.20002C17.7 7.60002 16.4 6.40002 14.8 6.00002C14.3 5.90002 13.9 5.40002 14 4.80002C14.1 4.30002 14.6 3.90002 15.2 4.00002C17.6 4.50002 19.5 6.30002 19.9 8.70002C20 9.20002 19.7 9.80002 19.1 9.90002C19.1 9.90002 19.1 10 19 10ZM23 9.90002C22.5 9.90002 22.1 9.50002 22 9.00002C21.6 5.30002 18.7 2.40002 14.9 1.90002C14.4 1.80002 14 1.30002 14 0.800024C14 0.300024 14.6 -0.0999756 15.1 -0.0999756C19.8 0.400024 23.4 4.00002 23.9 8.70002C24 9.20002 23.6 9.70002 23 9.80002C23.1 9.90002 23 9.90002 23 9.90002Z" fill="black"/>
</g>
<defs>
<clipPath id="clip0_5_361">
<rect width="24" height="24" fill="white"/>
</clipPath>
</defs>
</svg>
