<svg width="325" height="304" viewBox="0 0 325 304" fill="none" xmlns="http://www.w3.org/2000/svg">
<path fill-rule="evenodd" clip-rule="evenodd" d="M146.282 57.2539V82.4844H132.696V57.2539H146.282Z" fill="black"/>
<path fill-rule="evenodd" clip-rule="evenodd" d="M146.282 250.365V275.595H132.696V250.365H146.282Z" fill="black"/>
<path fill-rule="evenodd" clip-rule="evenodd" d="M146.282 5.82239V31.0529H132.696V5.82239H146.282Z" fill="black"/>
<path fill-rule="evenodd" clip-rule="evenodd" d="M164.72 13.5857L114.259 13.5857L114.259 1.07903e-07L164.72 0L164.72 13.5857Z" fill="black"/>
<path fill-rule="evenodd" clip-rule="evenodd" d="M146.282 98.9813V172.732H132.696V98.9813H146.282Z" fill="black"/>
<path fill-rule="evenodd" clip-rule="evenodd" d="M145.312 172.732L71.5607 172.732L71.5607 159.146L145.312 159.146L145.312 172.732Z" fill="black"/>
<path fill-rule="evenodd" clip-rule="evenodd" d="M56.0343 172.732L30.8038 172.732L30.8037 159.147L56.0342 159.146L56.0343 172.732Z" fill="black"/>
<path fill-rule="evenodd" clip-rule="evenodd" d="M138.519 286.269C204.975 286.269 258.849 232.396 258.849 165.939C258.849 99.4827 204.975 45.609 138.519 45.609C72.0622 45.609 18.1885 99.4827 18.1885 165.939C18.1885 232.396 72.0622 286.269 138.519 286.269ZM138.519 303.737C214.622 303.737 276.316 242.043 276.316 165.939C276.316 89.8358 214.622 28.1417 138.519 28.1417C62.4152 28.1417 0.721191 89.8358 0.721191 165.939C0.721191 242.043 62.4152 303.737 138.519 303.737Z" fill="black"/>
</svg>
